<svg xmlns="http://www.w3.org/2000/svg" viewBox="0 0 64 64">
  <!-- Ears -->
  <path d="M10 28 L6 6 L22 20 Z" fill="#14b8a6" stroke="#0d9488" stroke-width="1.5" stroke-linejoin="round"/>
  <path d="M54 28 L58 6 L42 20 Z" fill="#14b8a6" stroke="#0d9488" stroke-width="1.5" stroke-linejoin="round"/>
  <!-- Inner ears -->
  <path d="M13 25 L10 11 L20 20 Z" fill="#5eead4"/>
  <path d="M51 25 L54 11 L44 20 Z" fill="#5eead4"/>
  <!-- Head -->
  <ellipse cx="32" cy="36" rx="22" ry="20" fill="#14b8a6"/>
  <!-- Eyes -->
  <ellipse cx="23" cy="33" rx="3.5" ry="4" fill="white"/>
  <ellipse cx="41" cy="33" rx="3.5" ry="4" fill="white"/>
  <ellipse cx="23" cy="33" rx="2" ry="3" fill="#1e293b"/>
  <ellipse cx="41" cy="33" rx="2" ry="3" fill="#1e293b"/>
  <!-- Eye shine -->
  <circle cx="24.2" cy="31.5" r="1" fill="white"/>
  <circle cx="42.2" cy="31.5" r="1" fill="white"/>
  <!-- Nose -->
  <path d="M30 39 L32 41 L34 39 Z" fill="#f472b6"/>
  <!-- Mouth -->
  <path d="M32 41 Q28 45 26 43" fill="none" stroke="#0d9488" stroke-width="1.2" stroke-linecap="round"/>
  <path d="M32 41 Q36 45 38 43" fill="none" stroke="#0d9488" stroke-width="1.2" stroke-linecap="round"/>
  <!-- Whiskers -->
  <line x1="4" y1="36" x2="18" y2="38" stroke="#0d9488" stroke-width="1" stroke-linecap="round"/>
  <line x1="4" y1="42" x2="18" y2="41" stroke="#0d9488" stroke-width="1" stroke-linecap="round"/>
  <line x1="60" y1="36" x2="46" y2="38" stroke="#0d9488" stroke-width="1" stroke-linecap="round"/>
  <line x1="60" y1="42" x2="46" y2="41" stroke="#0d9488" stroke-width="1" stroke-linecap="round"/>
</svg>

